<svg height="1024" width="896" xmlns="http://www.w3.org/2000/svg">
  <path d="M 64.051 892.069 L 326.256 355.47 L 426.031 355.47 L 684.768 892.069 L 601.498 919.891 L 526.697 760.899 L 216.205 760.899 L 141.746 918.347 L 64.051 892.069 M 244.924 697.302 L 496.883 697.302 L 371.506 430.107 L 244.924 697.302 Z" style="white-space: pre; fill: rgba(255, 0, 0, 0.458824);" transform="matrix(1, 0.000217, -0.000217, 1, 0.138491, -0.081294)"/>
  <path fill="rgba(0,0,0,0.4)" d="M 126.743 796.022 L 382.743 796.022 L 382.743 860.022 L 126.743 860.022 L 126.743 796.022 Z M 446.743 412.022 L 126.743 412.022 L 126.743 476.022 L 446.743 476.022 L 446.743 412.022 Z M 574.743 604.022 L 574.743 476.022 L 382.743 668.022 L 574.743 860.022 L 574.743 732.022 L 894.743 732.022 L 894.743 604.022 L 574.743 604.022 Z M 286.743 540.022 L 126.743 540.022 L 126.743 604.022 L 286.743 604.022 L 286.743 540.022 Z M 126.743 732.022 L 286.743 732.022 L 286.743 668.022 L 126.743 668.022 L 126.743 732.022 Z M 702.743 796.022 L 766.743 796.022 L 766.743 924.022 C 765.743 942.022 759.743 957.022 747.743 969.022 C 735.743 981.022 720.743 987.022 702.743 988.022 L 62.743 988.022 C 27.743 988.022 -1.257 959.022 -1.257 924.022 L -1.257 220.022 C -1.257 185.022 27.743 156.022 62.743 156.022 L 254.743 156.022 C 254.743 85.022 311.743 28.022 382.743 28.022 C 453.743 28.022 510.743 85.022 510.743 156.022 L 702.743 156.022 C 737.743 156.022 766.743 185.022 766.743 220.022 L 766.743 540.022 L 702.743 540.022 L 702.743 348.022 L 62.743 348.022 L 62.743 924.022 L 702.743 924.022 L 702.743 796.022 Z M 126.743 284.022 L 638.743 284.022 C 638.743 249.022 609.743 220.022 574.743 220.022 L 510.743 220.022 C 475.743 220.022 446.743 191.022 446.743 156.022 C 446.743 121.022 417.743 92.022 382.743 92.022 C 347.743 92.022 318.743 121.022 318.743 156.022 C 318.743 191.022 289.743 220.022 254.743 220.022 L 190.743 220.022 C 155.743 220.022 126.743 249.022 126.743 284.022 Z"/>
</svg>